<svg width="100%" min-height="0" viewBox="0 0 802 472" fill="none"
    xmlns="http://www.w3.org/2000/svg">
    <g id="fuse">
        <rect width="802" height="472" fill="black" />
        <g id="stroke">
            <path id="s-1" d="M60.96 405.563C56.7525 400.21 53.6925 393.71 52.545 386.829C52.1625 385.299 52.1625 383.388 52.1625 381.858C51.3975 366.565 58.665 350.125 72.0525 334.45C78.9375 326.421 88.1175 318.392 98.8275 310.745C109.155 303.481 121.012 296.217 134.782 288.953C149.7 281.306 168.442 272.513 191.01 263.337L187.568 239.633L186.803 235.045C162.323 244.985 139.755 256.073 119.1 267.925C104.948 275.954 91.9425 284.365 80.4675 292.776C67.845 302.334 56.7525 311.892 47.5725 321.833C44.895 324.892 42.2175 327.95 39.54 331.009C21.5625 353.184 12 374.976 12 395.24C12 417.415 24.24 436.913 46.8075 449.53C62.1075 457.941 80.085 462.147 98.8275 461C100.74 461 102.27 460.618 104.183 460.618C89.6475 451.059 73.5825 431.178 60.96 405.563Z" fill="white" stroke="white" stroke-width="2.5" />
            <path id="s-2" d="M322.973 73.3202C322.208 68.35 321.06 63.762 319.53 59.5564C316.853 50.7629 313.792 43.1164 310.35 36.9991C307.672 31.6465 303.848 27.0586 300.405 24C296.58 24 292.372 24.3823 288.165 25.147C285.87 25.5293 283.575 26.294 281.28 27.0586C277.838 28.2056 274.395 29.3526 270.952 30.8819C269.04 31.6465 267.51 32.4112 265.598 33.5582C246.855 43.4987 229.26 61.8504 215.107 85.5547C205.545 101.995 199.043 122.64 195.218 147.109C194.835 150.168 194.452 153.609 194.07 157.05C192.157 174.637 192.158 192.606 193.305 210.576H172.268V229.692H185.655H195.6V231.604C195.6 231.604 195.6 231.604 195.982 231.604L196.747 235.809L200.19 259.896C200.572 261.425 200.573 262.572 200.955 264.101C204.015 279.777 204.398 296.599 202.868 314.186C202.485 316.48 202.485 318.392 202.102 320.686C199.042 346.302 191.01 368.477 177.622 386.446C167.677 399.828 156.203 410.15 143.58 416.65C138.608 419.326 133.252 421.238 127.897 422.767C111.067 427.738 94.62 426.591 80.085 420.091C90.4125 437.678 102.27 451.442 113.745 459.088C117.952 458.324 122.16 457.177 126.367 456.03C131.34 454.5 135.93 452.971 140.52 450.677C163.852 440.737 185.272 423.15 202.102 399.828C216.255 379.947 224.287 355.095 226.965 325.274C228.877 304.246 228.113 283.6 225.818 263.337C225.435 259.131 224.67 254.543 223.905 250.338L221.993 238.103V229.31H244.943V210.576H221.993H217.785L216.255 199.106C215.108 187.254 215.107 174.255 216.637 162.02C217.785 151.315 219.698 141.374 221.993 132.199C225.435 119.582 229.643 108.494 235.38 98.5538C243.03 84.79 251.827 74.8495 261.39 67.9676C261.772 67.5853 262.537 67.203 262.92 66.8206C265.98 64.909 269.04 62.9974 272.1 61.8504C283.192 57.2625 294.285 57.2625 304.995 61.0857C307.29 61.8504 309.585 62.9974 311.498 64.1444C316.088 66.4383 319.913 69.8793 322.973 73.3202Z" fill="white" stroke="white" stroke-width="2.5" />
            <path id="s-3" d="M362.37 81.7314C360.458 70.2616 356.633 59.9388 350.895 51.1452C347.835 46.9396 344.393 42.734 340.568 39.2931C339.803 38.5284 339.037 37.7638 337.89 36.9991C335.212 35.0875 332.535 33.1759 329.858 31.2642C324.12 28.2056 318.383 25.9116 312.263 24.7647C310.35 24.7647 308.055 24.3823 306.143 24C311.115 27.0586 315.705 32.4112 319.53 39.2931C322.973 45.4103 326.033 53.0569 328.71 61.8504C331.388 71.0262 333.3 81.7314 334.448 92.8189C334.83 95.4952 334.83 97.7891 335.213 100.465C335.595 103.906 335.978 107.73 335.595 111.553C335.213 122.64 332.153 134.11 326.033 145.198C322.973 150.933 319.148 156.668 314.175 162.402C312.645 164.314 310.732 165.843 309.202 167.755V192.989V202.547C313.027 199.488 316.47 196.43 319.913 193.371C332.918 181.519 342.48 169.284 349.365 156.285C362.752 130.287 366.195 104.289 362.37 81.7314Z" fill="white" stroke="white" stroke-width="2.5" />
            <path id="s-4" d="M391.44 129.905V210.576V229.692V264.866C384.937 282.453 366.195 296.599 349.365 296.599C310.35 296.599 302.317 266.395 302.317 240.78V229.31V210.193V129.905H275.925V210.576V229.692V241.162C275.925 277.483 293.137 316.098 340.95 316.098C359.692 316.098 377.67 308.834 391.44 296.599V313.422H417.832V309.216V305.01V229.692V210.576V129.905H391.44Z" fill="white" stroke="white" stroke-width="2.5" />
            <path id="s-5" d="M463.732 210.576H435.427V229.692H488.977C484.387 227.398 479.797 224.339 475.59 221.281C470.617 217.84 466.792 214.399 463.732 210.576Z" fill="white" stroke="white" stroke-width="2.5" />
            <path id="s-6" d="M557.445 230.839C549.795 222.81 539.85 217.075 529.905 211.723C526.08 209.811 522.255 207.899 518.43 206.37C498.157 196.812 480.945 188.783 480.945 170.431C480.945 155.903 495.862 147.109 510.015 147.109C526.08 147.109 532.2 152.08 543.675 163.932L550.177 170.814L559.74 142.139L555.915 139.845C543.675 132.581 529.523 128.375 516.135 128.375C490.125 128.375 459.907 140.227 459.907 173.872C459.907 191.077 466.792 202.929 476.737 212.105C485.535 220.134 496.628 225.869 507.72 231.221C509.633 231.986 511.162 232.751 513.075 233.898C533.347 243.073 550.56 251.485 550.56 269.072C550.56 290.482 530.287 298.129 513.075 298.129C499.305 298.129 485.535 293.923 473.677 286.659L470.617 284.747L436.957 306.54L450.345 309.216C467.557 312.657 490.508 316.863 514.223 316.863C542.528 316.863 571.597 299.658 571.597 266.778C570.832 250.72 565.478 239.633 557.445 230.839Z" fill="white" stroke="white" stroke-width="2.5" />
            <path id="s-7" d="M777 223.192C777 218.987 776.617 214.781 776.235 210.576C770.88 166.226 737.985 124.552 685.583 124.552C633.18 124.552 593.017 160.873 588.427 210.576H546.352C549.03 212.487 551.707 214.399 554.002 216.311C558.975 220.516 563.182 224.722 566.625 229.692H588.81C593.782 275.571 636.622 314.951 682.905 314.951C715.035 314.951 744.87 299.276 759.405 274.807L762.083 270.219L750.225 262.954L747.165 267.542C734.925 285.129 711.21 297.746 689.025 297.746C646.567 297.746 622.087 263.719 616.35 230.074H777V223.192ZM615.967 210.576C619.792 178.078 645.42 145.198 681.375 145.198C722.685 145.198 743.34 178.078 749.077 210.576H615.967Z" fill="white" stroke="white" stroke-width="2.5" />
        </g>
        <g id="text">
            <g id="Group">
                <path id="Vector" d="M723.067 354.713C723.067 352.801 723.067 350.89 723.067 348.596V346.302H727.658C727.658 347.449 727.657 349.36 727.275 351.272C727.275 352.801 727.275 353.948 727.275 354.713V368.859C727.275 370.771 727.275 372.682 727.275 374.212C727.275 374.976 727.275 375.741 727.275 376.123H722.685C722.685 374.594 722.685 373.065 723.067 371.535C723.067 370.388 723.067 369.241 723.067 368.477V354.713Z" fill="white" />
                <path id="Vector_2" d="M733.777 354.713C733.777 352.801 733.777 350.89 733.777 348.596V346.302H738.367C738.367 347.449 738.368 349.36 737.985 351.272C737.985 352.801 737.985 353.948 737.985 354.713V368.859C737.985 370.771 737.985 372.682 737.985 374.212C737.985 374.976 737.985 375.741 737.985 376.123H733.395C733.395 374.594 733.395 373.065 733.777 371.535C733.777 370.388 733.777 369.241 733.777 368.477V354.713Z" fill="white" />
                <path id="Vector_3" d="M759.405 355.478C760.17 355.86 760.552 355.86 761.317 356.242L760.552 358.536C759.405 357.772 758.257 357.389 756.727 357.007C755.962 357.007 755.198 356.625 754.433 356.625C752.52 356.625 750.607 357.389 749.077 358.919C747.547 360.448 746.783 362.742 746.783 365.418C746.783 367.712 747.548 370.006 748.695 371.535C749.843 373.065 751.755 374.212 754.05 374.212C755.197 374.212 756.728 373.829 758.258 373.065C759.023 372.682 759.405 372.3 759.787 372.3C760.17 371.918 760.552 371.918 760.552 371.918L761.317 373.829C760.935 374.212 759.787 374.976 758.64 375.359C757.11 376.123 755.58 376.506 754.05 376.506C750.607 376.506 747.93 375.741 745.635 373.829C743.34 371.918 742.192 369.241 742.192 365.801C742.192 361.977 743.722 359.301 746.017 357.389C748.312 355.478 751.373 354.713 754.433 354.713C755.963 354.713 757.875 355.095 759.405 355.478Z" fill="white" />
            </g>
            <g id="Group_2">
                <path id="Vector_4" d="M254.888 380.711C254.888 384.535 254.888 387.975 255.27 391.416L255.653 396.004H246.855C246.855 395.622 246.855 394.475 246.855 392.946C246.855 391.034 246.855 389.122 246.855 387.593V384.152C246.855 381.858 246.855 380.329 246.855 379.182V363.124C246.855 360.066 246.855 356.242 246.473 352.037L246.09 347.066H251.828C254.123 347.066 256.035 347.066 257.948 346.684C259.86 346.684 261.39 346.302 262.92 346.302C269.805 346.302 274.395 347.831 277.838 350.89C280.898 353.566 282.045 357.007 282.045 360.83C282.045 364.271 280.898 366.948 278.22 369.241C275.925 371.153 272.865 372.682 268.658 373.829C265.98 374.212 262.92 374.594 259.86 374.594C258.33 374.594 256.8 374.594 255.27 374.212C254.888 374.976 254.888 380.711 254.888 380.711ZM258.713 350.507C257.183 350.507 256.035 350.507 254.888 350.507V371.918C255.653 371.918 256.8 371.918 257.948 371.918C261.008 371.918 263.685 371.535 265.98 370.771C269.04 370.006 270.953 368.094 272.483 365.801C273.248 364.654 273.63 363.124 273.63 361.213C273.63 353.948 269.423 350.125 261.773 350.125C261.39 350.507 260.243 350.507 258.713 350.507Z" fill="white" />
                <path id="Vector_5" d="M319.53 347.066L332.918 379.564C334.065 382.623 335.978 386.828 338.273 391.416C339.038 393.328 339.803 394.857 340.568 396.387H330.24C330.24 396.387 330.24 396.004 329.858 395.24C329.093 392.946 328.328 391.034 327.563 388.74L326.033 384.152C325.65 384.152 324.503 384.152 322.973 383.77C321.443 383.77 319.53 383.77 316.852 383.77H309.968C307.673 383.77 305.76 383.77 304.613 383.77H303.083H301.935L298.875 391.416L297.727 394.093L296.963 395.622H291.225L291.608 394.857L294.285 389.122C295.433 386.446 296.963 383.77 298.11 380.711L300.023 376.506L313.027 346.302L319.53 347.066ZM303.465 380.329C304.612 380.329 305.76 380.329 306.908 380.329H309.585H316.852C321.06 380.329 323.737 380.329 324.502 380.329L314.175 354.331L303.465 380.329Z" fill="white" />
                <path id="Vector_6" d="M405.593 396.004C405.21 396.004 404.828 396.387 404.063 396.387C403.298 396.387 402.915 396.769 402.15 396.769C401.768 396.769 401.385 396.769 401.385 396.769C400.62 396.769 400.238 396.769 399.473 396.387C396.795 395.622 394.5 393.328 391.823 389.505C390.675 387.975 389.528 386.064 388.763 384.152L385.702 378.8C384.555 377.27 383.79 376.123 382.643 375.359C381.495 374.594 380.348 374.212 378.435 373.829C376.905 373.829 374.993 373.829 373.08 373.829H370.02V380.329C370.02 383.77 370.02 387.593 370.402 391.034C370.402 393.328 370.785 394.857 370.785 396.004H361.605C361.605 396.004 361.605 395.622 361.605 394.475C361.605 391.799 361.988 388.358 361.988 384.535C361.988 381.858 361.988 379.564 361.988 378.035V362.742C361.988 359.683 361.988 355.86 361.605 351.654L361.223 346.684C365.048 346.684 368.49 346.684 371.168 346.684C374.228 346.684 376.523 346.684 378.818 346.684C385.32 346.684 390.293 348.213 393.735 350.89C396.413 353.184 397.943 356.625 397.943 360.83C397.943 363.889 396.795 366.183 394.5 368.477C392.588 370.388 389.527 371.918 385.702 372.682C387.615 372.682 389.145 373.447 390.293 374.212C391.823 375.359 393.353 377.27 394.5 379.564C396.03 383.005 397.56 386.064 399.09 388.358C400.237 390.269 401.385 391.799 402.533 392.946C403.68 394.093 404.445 394.857 405.21 394.857L405.593 396.004ZM374.227 350.507C372.315 350.507 371.168 350.89 370.02 350.89V371.153C370.785 371.153 371.933 371.153 373.08 371.153C374.61 371.153 376.14 371.153 377.67 370.771C381.113 370.388 384.173 369.624 386.085 368.094C388.763 366.565 390.293 363.889 390.293 360.83C390.293 357.389 389.145 354.713 386.85 352.801C384.555 351.272 381.877 350.125 378.052 350.125C376.905 350.507 375.757 350.507 374.227 350.507Z" fill="white" />
                <path id="Vector_7" d="M436.575 350.89C433.133 350.89 429.69 351.272 426.248 351.654L421.658 352.037V347.449H459.525V352.037C456.848 351.654 453.787 351.654 450.345 351.272C448.05 351.272 446.138 350.89 444.608 350.89V380.711C444.608 384.535 444.607 387.975 444.99 391.416C444.99 393.71 444.99 395.24 445.373 396.387H436.575C436.575 392.181 436.958 389.122 436.958 386.446C436.958 384.152 436.958 382.241 436.958 380.711L436.575 350.89Z" fill="white" />
                <path id="Vector_8" d="M518.813 396.387C513.84 390.652 508.485 384.917 503.513 379.182C499.305 374.594 495.48 370.388 492.038 366.947C490.125 365.036 488.595 363.507 487.83 362.36C486.683 361.213 485.918 360.448 485.153 360.066L485.535 377.653C485.535 380.329 485.918 384.152 486.3 389.505C486.3 389.887 486.3 390.269 486.3 391.034L486.683 395.24V396.769H480.945C480.945 395.622 480.945 394.475 480.945 393.71V384.917C480.945 383.77 480.945 382.241 480.945 379.947V363.507C480.945 359.301 480.945 355.478 480.563 352.037V347.831H484.388C491.273 355.478 496.245 361.213 499.688 365.036L503.513 369.624C505.425 371.918 508.103 374.594 511.163 378.035C513.84 380.711 515.753 382.623 516.9 384.152C517.665 384.917 518.047 385.299 518.43 385.682L518.048 366.947C518.048 361.595 517.665 357.007 517.283 353.184C517.283 350.89 516.9 349.36 516.9 348.213H522.638C522.638 350.125 522.638 352.419 522.638 355.478C522.638 359.301 522.638 362.742 522.638 365.036V381.476C522.638 385.682 522.638 389.505 523.02 392.946L523.403 397.151L518.813 396.387Z" fill="white" />
                <path id="Vector_9" d="M548.265 362.742C548.265 359.683 548.265 355.86 547.883 352.037L547.5 347.066H578.1V351.654C574.275 351.272 570.068 351.272 565.095 350.89C562.418 350.89 559.358 350.89 555.915 350.507V368.094C559.358 368.094 561.653 368.094 563.183 368.094H565.095L575.04 367.712V372.3C573.128 372.3 571.215 372.3 569.303 371.918H563.183C560.123 371.918 557.445 371.918 555.915 371.918V392.181C562.8 392.181 568.155 391.799 571.598 391.799C573.51 391.799 575.805 391.416 578.1 391.416V396.004H547.5C547.5 393.71 547.883 392.181 547.883 391.034C547.883 387.211 548.265 383.388 548.265 380.329V362.742Z" fill="white" />
                <path id="Vector_10" d="M646.567 396.004C646.185 396.004 645.803 396.387 645.038 396.387C644.273 396.387 643.89 396.769 643.125 396.769C642.743 396.769 642.36 396.769 642.36 396.769C641.595 396.769 641.213 396.769 640.448 396.387C637.77 395.622 635.475 393.328 632.798 389.505C631.65 387.975 630.503 386.064 629.738 384.152L626.678 378.8C625.53 377.27 624.765 376.123 623.617 375.359C622.47 374.594 621.323 374.212 619.41 373.829C617.88 373.829 615.967 373.829 614.055 373.829H610.995V380.329C610.995 383.77 610.995 387.593 611.378 391.034C611.378 393.328 611.76 394.857 611.76 396.004H602.58C602.58 396.004 602.58 395.622 602.58 394.475C602.58 391.799 602.963 388.358 602.963 384.535C602.963 381.858 602.963 379.564 602.963 378.035V362.742C602.963 359.683 602.962 355.86 602.58 351.654L602.198 346.684C606.023 346.684 609.465 346.684 612.142 346.684C615.202 346.684 617.497 346.684 619.792 346.684C626.295 346.684 631.268 348.213 634.71 350.89C637.388 353.184 638.917 356.625 638.917 360.83C638.917 363.889 637.77 366.183 635.475 368.477C633.563 370.388 630.503 371.918 626.678 372.682C628.59 372.682 630.12 373.447 631.267 374.212C632.797 375.359 634.328 377.27 635.475 379.564C637.005 383.005 638.535 386.064 640.065 388.358C641.213 390.269 642.36 391.799 643.508 392.946C644.655 394.093 645.42 394.857 646.185 394.857L646.567 396.004ZM615.203 350.507C613.29 350.507 612.143 350.89 610.995 350.89V371.153C611.76 371.153 612.907 371.153 614.055 371.153C615.585 371.153 617.115 371.153 618.645 370.771C622.088 370.388 625.148 369.624 627.06 368.094C629.738 366.565 631.267 363.889 631.267 360.83C631.267 357.389 630.12 354.713 627.825 352.801C625.53 351.272 622.853 350.125 619.028 350.125C618.263 350.507 616.733 350.507 615.203 350.507Z" fill="white" />
                <path id="Vector_11" d="M666.075 386.829C668.37 389.122 671.048 390.652 674.49 391.799C677.168 392.946 679.845 393.328 682.14 393.328C685.965 393.328 689.408 392.181 691.703 390.652C693.998 389.122 695.145 386.829 695.145 384.535C695.145 382.241 693.615 379.947 690.555 377.653C689.407 376.888 687.877 376.123 686.73 374.976C685.2 374.212 683.287 373.065 680.992 371.918C676.402 369.624 673.725 368.094 671.43 366.183C668.37 363.889 667.223 361.213 667.223 358.154C667.223 354.331 668.37 351.272 671.048 348.978C674.108 346.684 678.315 345.537 684.435 345.537C689.408 345.537 694.38 346.684 699.735 349.36L697.823 353.948C696.675 352.801 694.38 352.037 691.703 350.89C689.025 350.125 686.348 349.36 684.435 349.36C681.375 349.36 679.463 349.743 677.55 350.89C675.638 352.037 674.49 353.948 674.49 356.242C674.49 358.154 676.02 359.683 678.698 361.595C680.228 362.36 681.758 363.124 683.288 363.889C687.495 365.801 690.938 367.712 693.615 369.241C697.058 371.153 699.735 373.829 701.265 376.506C702.03 378.035 702.413 379.564 702.413 381.476C702.413 386.064 700.5 389.505 696.675 392.181C693.233 394.857 688.26 396.387 682.523 396.387C679.08 396.387 676.02 396.004 673.342 395.24C669.9 394.093 666.84 392.563 664.163 390.652L666.075 386.829Z" fill="white" />
            </g>
        </g>
    </g>

    <defs>
        <style>
#s-1 {
        fill: transparent;
        stroke-dasharray: 693.2410888671875;
        stroke-dashoffset: 693.2410888671875;
        animation: strokeIn 5s ease-in-out infinite;
      }

      @keyframes strokeIn {
        0% {
          fill: transparent;
        }

        50% {
          fill: transparent;
          stroke-dashoffset: 0;
        }

        70%,
        100% {
          fill: white;
          stroke-dashoffset: 0;
        }
      }

      #s-2 {
        fill: transparent;
        stroke-dasharray: 1261.2618408203125;
        stroke-dashoffset: 1261.2618408203125;
        animation: strokeIn 5s ease-in-out infinite;
      }

      #s-3 {
        fill: transparent;
        stroke-dasharray: 419.38958740234375;
        stroke-dashoffset: 419.38958740234375;
        animation: strokeIn 5s ease-in-out infinite;
      }

      #s-4 {
        fill: transparent;
        stroke-dasharray: 943.051513671875;
        stroke-dashoffset: 943.051513671875;
        animation: strokeIn 5s ease-in-out infinite;
      }

      #s-5 {
        fill: transparent;
        stroke-dasharray: 132.83132934570312;
        stroke-dashoffset: 132.83132934570312;
        animation: strokeIn 5s ease-in-out infinite;
      }

      #s-6 {
        fill: transparent;
        stroke-dasharray: 830.7244873046875;
        stroke-dashoffset: 830.7244873046875;
        animation: strokeIn 5s ease-in-out infinite;
      }

      #s-7 {
        fill: transparent;
        stroke-dasharray: 1318.987060546875;
        stroke-dashoffset: 1318.987060546875;
        animation: strokeIn 5s ease-in-out infinite;
      }

      #text {
        transform-box: fill-box;
        transform-origin: center;
        animation: text-in 5s ease-in-out infinite;
      }

      @keyframes text-in {
        0%,
        60% {
          opacity: 0;
          transform: translateY(-50px);
        }

        75%,
        100% {
          opacity: 1;
          transform: translateY(0px);
        }
      }
        </style>
    </defs>
</svg>